# xmcd
#
# Track frame offsets:
#	150
#	25100
#	32047
#	39820
#	49997
#	62325
#	72325
#	81155
#	86982
#	89472
#	100347
#	109667
#	117887
#	125132
#	134307
#	142585
#	150972
#	158955
#	166477
#	172697
#	183500
#	190545
#	198915
#	214427
#
# Disc length: 3107 seconds
#
# Revision: 1
# Processed by: cddbd v1.5.1PL0 Copyright (c) Steve Scherf et al.
# Submitted via: CDex 1.50Beta5
#
DISCID=3e0c2118
DTITLE=川井憲次 - 獣戦士ガルキーバ 宿命の戦士たち
DYEAR=1900
DGENRE=Anime
TTITLE0=Don't Look Back
TTITLE1=神城桃矢
TTITLE2=桃矢の決意
TTITLE3=苦悩する桃矢
TTITLE4=深い悲しみ
TTITLE5=怒りの爆発
TTITLE6=覚醒の予感
TTITLE7=迫る危機
TTITLE8=慄然
TTITLE9=運命の出会い
TTITLE10=アニマノイド戦士
TTITLE11=ダークノイドのメカ?
TTITLE12=アニマノイド戦士苦戦
TTITLE13=戦士ラディアス
TTITLE14=ダークノイドのメカ?
TTITLE15=ガルキーバ
TTITLE16=王女ミレイア
TTITLE17=ラディアスの伝説
TTITLE18=行動する戦士
TTITLE19=サスペンス
TTITLE20=体峙
TTITLE21=ダー・レム
TTITLE22=エターナリア
TTITLE23=会いたくて会いたくて〜Voice Of Moon〜
EXTD=ORIGINAL SOUND TRACK VOL.1
EXTT0=
EXTT1=
EXTT2=
EXTT3=
EXTT4=
EXTT5=
EXTT6=
EXTT7=
EXTT8=
EXTT9=
EXTT10=
EXTT11=
EXTT12=
EXTT13=
EXTT14=
EXTT15=
EXTT16=
EXTT17=
EXTT18=
EXTT19=
EXTT20=
EXTT21=
EXTT22=
EXTT23=
PLAYORDER=
